<svg height="200" viewBox="0 0 200 200" width="200" xmlns="http://www.w3.org/2000/svg"><g transform="matrix(.91230944 0 0 .91230944 8.769056 8.769056)"><path d="m193.06641 200h-186.132816c-3.800782 0-6.933594-3.13281-6.933594-6.93359v-186.132816c0-3.800782 3.132812-6.933594 6.933594-6.933594h186.132816c3.80078 0 6.93359 3.132812 6.93359 6.933594v186.132816c0 3.80078-3.13281 6.93359-6.93359 6.93359zm0 0" fill="#232323"/><path d="m200 146.53516h-200v-98.136722h200zm0 0"/><path d="m25.867188 17.199219v4.066406h28.867187v-4.066406zm32.933593 0v4.066406h41.132813s-4.199219-4.066406-9.734375-4.066406zm49.199219 0v4.066406h24.86719l-1.46875-4.066406zm42.73437 0-1.46875 4.066406h24.66797v-4.066406zm-124.867182 7.867187v4.066406h28.867187v-4.066406zm32.933593.06641v4.066407h45.867189s-.53516-3.132813-1.46875-4.066407zm49.199219 0v4.066407h27.60156l-1.40234-4.066407zm39.80078 0-1.40234 4.066407h27.46875v-4.066411zm-113.667968 7.867184v4.066406h12.535157v-4.066406zm33 0v4.066406h12.46875v-4.066406zm24.601563 0v4.066406h12.464845s.80078-2.132812.80078-4.066406zm24.597655 0v4.066406h22.13281l-1.46484-4.066406zm28.73438 0-1.46485 4.066406h22.26563v-4.066406zm-110.933598 7.867188v4.066406h12.535157v-4.066406zm33 0v4.066406h31.933594s2.667974-2.066406 3.535154-4.066406zm49.199218 0v4.066406h12.46875v-2.265625l.80078 2.265625h22.86328l.86719-2.265625v2.265625h12.46875v-4.066406h-23.46875l-1.26562 3.464843-1.26563-3.464843zm-82.199218 7.933593v4.066407h12.535157v-4.066407zm33 0v4.066407h35.468748c-.86718-2-3.535154-4.066407-3.535154-4.066407zm49.199218 0v4.066407h12.46875v-4.066407zm14.73438 0 1.53515 4.066407h17.13281l1.46485-4.066407zm22.26562 0v4.066407h12.46875v-4.066407zm-119.199218 7.867188v4.066406h12.535157v-4.066406zm33 0v4.066406h12.46875v-4.066406zm24.601563 0v4.066406h13.265625c0-1.933594-.80078-4.066406-.80078-4.066406zm24.597655 0v4.066406h12.46875v-4.066406zm17.60156 0 1.46485 4.066406h11.53515l1.46485-4.066406zm19.39844 0v4.066406h12.46875v-4.066406zm-127.265624 7.867187v4.066406h28.867188v-4.066406zm32.734375 0v4.066406h44.398439c.93359-.933593 1.46875-4.066406 1.46875-4.066406zm49.464849 0v4.066406h20.53515v-4.066406zm28.46874 0 1.53125 4.066406h5.86719l1.40235-4.066406zm16.59766 0v4.066406h20.80078v-4.066406zm-127.265624 7.929688v4.070312h28.867188v-4.070312zm32.734375 0v4.070312h31.332031c5.535157 0 9.734376-4.070312 9.734376-4.070312zm49.464849 0v4.070312h20.53515v-4.070312zm31.33593 0 1.46485 4.070312h.26562l1.46875-4.070312zm13.73047 0v4.070312h20.80078v-4.070312zm0 0" fill="#fff"/><path d="m192.73437 200h-185.468745c-4 0-7.265625-3.26563-7.265625-7.26563v-97.867182l200-.46875v98.335932c0 4-3.26563 7.26563-7.26563 7.26563zm0 0" fill="#0292ce"/><g fill="#fff"><text x="17" y="175" fill="WHITE" font-size="80px" font-family="Avantgarde, sans-serif" font-weight="bolder" >PL/1</text></g></g></svg>